<?xml version="1.0" encoding="utf-8"?>
<!-- Generated by IcoMoon.io -->
<!DOCTYPE svg PUBLIC "-//W3C//DTD SVG 1.1//EN" "http://www.w3.org/Graphics/SVG/1.1/DTD/svg11.dtd">
<svg version="1.1" xmlns="http://www.w3.org/2000/svg" xmlns:xlink="http://www.w3.org/1999/xlink" width="128" height="128" viewBox="0 0 128 128">
<path fill="#1d75bd" d="M106.664 0h-85.328c-11.735 0-21.336 9.598-21.336 21.332v85.332c0 11.734 9.601 21.336 21.336 21.336h85.328c11.742 0 21.336-9.601 21.336-21.336v-85.332c0-11.734-9.594-21.332-21.336-21.332zM32 32h64c1.142 0 2.251 0.245 3.268 0.708l-35.268 41.146-35.268-41.146c1.017-0.462 2.126-0.707 3.268-0.707zM24 88v-48c0-0.167 0.007-0.334 0.017-0.5l23.458 27.368-23.2 23.2c-0.18-0.667-0.276-1.361-0.276-2.067zM96 96h-64c-0.707 0-1.4-0.095-2.067-0.276l22.765-22.765 11.303 13.187 11.303-13.187 22.764 22.765c-0.668 0.18-1.361 0.275-2.067 0.275zM104 88c0 0.707-0.095 1.4-0.276 2.067l-23.2-23.2 23.458-27.368c0.010 0.166 0.017 0.333 0.017 0.5v48z"></path>
</svg>
