<?xml version="1.0" encoding="utf-8"?>
<!-- Generated by IcoMoon.io -->
<!DOCTYPE svg PUBLIC "-//W3C//DTD SVG 1.1//EN" "http://www.w3.org/Graphics/SVG/1.1/DTD/svg11.dtd">
<svg version="1.1" xmlns="http://www.w3.org/2000/svg" xmlns:xlink="http://www.w3.org/1999/xlink" width="32" height="32" viewBox="0 0 128 128">
<path fill="#020718" d="M117.92 67.68c1.307-1.787 2.080-3.973 2.080-6.347 0-5.893-4.773-10.667-10.667-10.667h-10.667c-2.933 0-5.333-2.397-5.333-5.333v-32c0-5.893-4.773-10.667-10.667-10.667l-37.333 0c-5.893 0-10.667 4.773-10.667 10.667v32c0 2.936-2.4 5.333-5.333 5.333h-10.666c-5.893 0-10.667 4.773-10.667 10.667 0 2.373 0.773 4.56 2.077 6.347l44.456 53.733c5.227 5.227 13.707 5.227 18.933 0l44.453-53.733z"></path>
</svg>
