<?xml version="1.0" encoding="utf-8"?>
<!-- Generated by IcoMoon.io -->
<!DOCTYPE svg PUBLIC "-//W3C//DTD SVG 1.1//EN" "http://www.w3.org/Graphics/SVG/1.1/DTD/svg11.dtd">
<svg version="1.1" xmlns="http://www.w3.org/2000/svg" xmlns:xlink="http://www.w3.org/1999/xlink" width="128" height="128" viewBox="0 0 128 128">
<path fill="#020718" d="M24 16c-2.212 0-4 1.788-4 4 0 2.208 1.788 4 4 4h80v84c0 4.416-3.584 8-8 8h-72c-4.416 0-8-3.584-8-8h2c3.312 0 6-2.688 6-6s-2.688-6-6-6h-2v-4h2c3.312 0 6-2.688 6-6s-2.688-6-6-6h-2v-4h2c3.312 0 6-2.688 6-6s-2.688-6-6-6h-2v-4h2c3.312 0 6-2.688 6-6s-2.688-6-6-6h-2v-4h2c3.312 0 6-2.688 6-6s-2.688-6-6-6h-2v-12c0-4.416 3.584-8 8-8h72c2.952 0 5.504 1.616 6.892 4h-78.892zM41.96 78.1c0.956 2.132 2.384 4.020 4.272 5.66 1.892 1.636 4.18 2.864 6.864 3.68 2.688 0.816 5.616 1.228 8.796 1.228 3.452 0 6.404-0.456 8.852-1.364 2.448-0.912 4.564-2.144 6.34-3.704 1.772-1.56 3.028-3.088 3.756-4.588h-3.876c-1.26 1.796-3.16 3.324-5.696 4.584s-5.68 1.888-9.428 1.888c-3.512 0-6.708-0.604-9.592-1.816s-5.092-3.084-6.616-5.612c-1.528-2.536-2.288-5.556-2.288-9.064 0-3.352 0.76-6.488 2.284-9.416s3.672-5.176 6.44-6.744c2.764-1.572 5.828-2.352 9.176-2.352 2.932 0 5.612 0.62 8.040 1.868s4.248 2.912 5.472 4.984c1.224 2.080 1.836 4.312 1.836 6.704 0 2.048-0.476 4.036-1.428 5.96-0.956 1.928-2.248 3.464-3.888 4.608-1.236 0.876-2.232 1.312-2.988 1.312-0.416 0-0.772-0.14-1.068-0.42-0.292-0.276-0.44-0.612-0.44-1 0-0.216 0.216-1.324 0.644-3.332l3.104-14.432h-3.844l-0.744 3.328c-0.816-1.332-1.788-2.324-2.92-2.976-1.128-0.652-2.32-0.976-3.564-0.976-1.632 0-3.316 0.572-5.052 1.72-1.732 1.148-3.18 2.864-4.348 5.148-1.168 2.288-1.752 4.572-1.752 6.852 0 1.848 0.376 3.548 1.128 5.096s1.732 2.696 2.932 3.436c1.204 0.748 2.44 1.116 3.716 1.116 1.16 0 2.316-0.324 3.468-0.976 1.156-0.652 2.2-1.516 3.128-2.588 0.084 0.876 0.224 1.492 0.412 1.856 0.284 0.56 0.732 0.988 1.34 1.292 0.608 0.3 1.412 0.448 2.4 0.448 3.096 0 5.948-1.444 8.56-4.336 2.924-3.224 4.388-6.912 4.388-11.064 0-2.908-0.696-5.6-2.084-8.080-1.628-2.88-3.86-5.044-6.688-6.496s-6.016-2.18-9.572-2.18c-4.584 0-8.476 1.028-11.692 3.088s-5.696 5.032-7.44 8.912c-1.432 3.164-2.148 6.492-2.148 9.984 0.004 3.14 0.604 6.064 1.808 8.764zM61.956 73.428c-0.808 0.944-1.656 1.66-2.544 2.14-0.892 0.48-1.736 0.724-2.536 0.724-1.204 0-2.268-0.548-3.204-1.636-0.928-1.088-1.396-2.616-1.396-4.584 0-1.236 0.232-2.588 0.688-4.072 0.456-1.476 1.068-2.732 1.824-3.764 0.76-1.032 1.544-1.78 2.352-2.248s1.672-0.7 2.588-0.7c1.392 0 2.568 0.536 3.536 1.612 0.964 1.076 1.448 2.588 1.448 4.54 0 1.464-0.256 2.924-0.772 4.38-0.512 1.46-1.176 2.664-1.984 3.608zM20 38c0 1.104-0.896 2-2 2h-4c-1.104 0-2-0.896-2-2s0.896-2 2-2h4c1.104 0 2 0.896 2 2zM14 52h4c1.104 0 2 0.896 2 2s-0.896 2-2 2h-4c-1.104 0-2-0.896-2-2s0.896-2 2-2zM14 68h4c1.104 0 2 0.896 2 2s-0.896 2-2 2h-4c-1.104 0-2-0.896-2-2s0.896-2 2-2zM14 84h4c1.104 0 2 0.896 2 2s-0.896 2-2 2h-4c-1.104 0-2-0.896-2-2s0.896-2 2-2zM14 100h4c1.104 0 2 0.896 2 2s-0.896 2-2 2h-4c-1.104 0-2-0.896-2-2s0.896-2 2-2zM116 39.752h-8v-12h8v12zM116 56h-8v-12h8v12zM116 71.752h-8v-12h8v12z"></path>
</svg>
