<?xml version="1.0" encoding="utf-8"?>
<!-- Generated by IcoMoon.io -->
<!DOCTYPE svg PUBLIC "-//W3C//DTD SVG 1.1//EN" "http://www.w3.org/Graphics/SVG/1.1/DTD/svg11.dtd">
<svg version="1.1" xmlns="http://www.w3.org/2000/svg" xmlns:xlink="http://www.w3.org/1999/xlink" width="120" height="128" viewBox="0 0 120 128">
<path fill="#02c9e0" d="M27.429 105.143c0-2.5-2.071-4.571-4.571-4.571s-4.571 2.071-4.571 4.571 2.071 4.571 4.571 4.571 4.571-2.071 4.571-4.571zM73.429 75.143l-48.714 48.714c-1.643 1.643-4 2.643-6.429 2.643s-4.786-1-6.5-2.643l-7.571-7.714c-1.714-1.643-2.714-4-2.714-6.429s1-4.786 2.714-6.5l48.643-48.643c3.714 9.357 11.214 16.857 20.571 20.571zM118.714 44.071c0 2.357-0.857 5.286-1.643 7.571-4.5 12.714-16.714 21.5-30.214 21.5-17.643 0-32-14.357-32-32s14.357-32 32-32c5.214 0 12 1.571 16.357 4.5 0.714 0.5 1.143 1.143 1.143 2 0 0.786-0.5 1.571-1.143 2l-20.929 12.071v16l13.786 7.643c2.357-1.357 18.929-11.786 20.357-11.786s2.286 1.071 2.286 2.5z"></path>
</svg>
