<?xml version="1.0" encoding="utf-8"?>
<!-- Generated by IcoMoon.io -->
<!DOCTYPE svg PUBLIC "-//W3C//DTD SVG 1.1//EN" "http://www.w3.org/Graphics/SVG/1.1/DTD/svg11.dtd">
<svg version="1.1" xmlns="http://www.w3.org/2000/svg" xmlns:xlink="http://www.w3.org/1999/xlink" width="128" height="128" viewBox="0 0 128 128">
<path fill="#00afe1" d="M90.632 43.952h20.688c2.772 6.164 4.428 12.916 4.712 20.048h-23.736c-0.1-7.536-0.724-14.176-1.664-20.048zM81.592 15.584c11.868 4.612 21.608 13.34 27.712 24.36h-19.344c-2.196-11.22-5.532-19.196-8.368-24.36zM64.272 39.944v-27.984c4.264 0.188 8.408 0.864 12.368 1.972 3 5.052 6.876 13.488 9.32 26.012h-21.688zM37.956 88.056c-0.936-5.876-1.584-12.476-1.684-20.048h23.992v20.048h-22.308zM37.916 43.952h22.348v20.048h-24.016c0.1-7.544 0.732-14.172 1.668-20.048zM47.952 13.844c3.948-1.064 8.060-1.74 12.312-1.876v27.976h-21.688c2.46-12.592 6.364-21.060 9.376-26.1zM14.644 39.944c6.204-11.2 16.248-19.972 28.384-24.524-2.86 5.16-6.236 13.18-8.456 24.524h-19.928zM32.24 64h-24.24c0.264-7.124 1.868-13.896 4.632-20.048h21.264c-0.932 5.876-1.56 12.512-1.656 20.048zM33.948 88.056h-21.16c-2.776-6.172-4.556-12.896-4.816-20.048h24.284c0.096 7.572 0.752 14.164 1.692 20.048zM34.604 92.064c2.236 11.456 5.664 19.468 8.536 24.568-12.18-4.532-22.228-13.34-28.44-24.568h19.904zM60.264 92.064v27.976c-4.208-0.132-8.268-0.796-12.18-1.84-3.020-4.944-6.944-13.452-9.424-26.136h21.604zM85.884 92.064c-2.468 12.608-6.368 21.084-9.376 26.048-3.916 1.084-8.024 1.672-12.236 1.86v-27.908h21.612zM64.272 68.008h23.992c-0.092 7.572-0.752 14.168-1.688 20.048h-22.304v-20.048zM88.288 64h-24.016v-20.048h22.344c0.94 5.876 1.572 12.504 1.672 20.048zM92.28 68.008h23.704c-0.264 7.148-2.024 13.872-4.788 20.048h-20.608c0.936-5.884 1.592-12.476 1.692-20.048zM109.272 92.064c-6.084 11.064-15.868 19.796-27.788 24.4 2.86-5.104 6.244-13.064 8.452-24.4h19.336z"></path>
</svg>
