<?xml version="1.0" encoding="utf-8"?>
<!-- Generated by IcoMoon.io -->
<!DOCTYPE svg PUBLIC "-//W3C//DTD SVG 1.1//EN" "http://www.w3.org/Graphics/SVG/1.1/DTD/svg11.dtd">
<svg version="1.1" xmlns="http://www.w3.org/2000/svg" xmlns:xlink="http://www.w3.org/1999/xlink" width="165" height="128" viewBox="0 0 165 128">
<path fill="#02c9e0" d="M126.714 59.714l1.286 22.571c0.571 10.071-20.5 18.286-45.714 18.286s-46.286-8.214-45.714-18.286l1.286-22.571 41 12.929c1.143 0.357 2.286 0.5 3.429 0.5s2.286-0.143 3.429-0.5zM164.571 36.571c0 1-0.643 1.857-1.571 2.214l-80 25.143c-0.286 0.071-0.5 0.071-0.714 0.071s-0.429 0-0.714-0.071l-46.571-14.714c-4.071 3.214-6.929 11.071-7.5 20.714 2.714 1.571 4.5 4.429 4.5 7.786 0 3.214-1.643 6-4.143 7.643l4.143 30.929c0.071 0.643-0.143 1.286-0.571 1.786s-1.071 0.786-1.714 0.786h-13.714c-0.643 0-1.286-0.286-1.714-0.786s-0.643-1.143-0.571-1.786l4.143-30.929c-2.5-1.643-4.143-4.429-4.143-7.643 0-3.429 1.929-6.357 4.643-7.929 0.429-8.357 2.571-17.357 7-23.571l-23.786-7.429c-0.929-0.357-1.571-1.214-1.571-2.214s0.643-1.857 1.571-2.214l80-25.143c0.286-0.071 0.5-0.071 0.714-0.071s0.429 0 0.714 0.071l80 25.143c0.929 0.357 1.571 1.214 1.571 2.214z"></path>
</svg>
