<?xml version="1.0" encoding="utf-8"?>
<!-- Generated by IcoMoon.io -->
<!DOCTYPE svg PUBLIC "-//W3C//DTD SVG 1.1//EN" "http://www.w3.org/Graphics/SVG/1.1/DTD/svg11.dtd">
<svg version="1.1" xmlns="http://www.w3.org/2000/svg" xmlns:xlink="http://www.w3.org/1999/xlink" width="110" height="128" viewBox="0 0 110 128">
<path fill="#00afe1" d="M91.429 85.214c0-0.357 0-0.786-0.143-1.143-0.429-1.286-10.857-6.571-12.857-7.714-1.357-0.786-3-2.357-4.643-2.357-3.143 0-7.786 9.357-10.571 9.357-1.429 0-3.214-1.286-4.5-2-9.429-5.286-15.929-11.786-21.214-21.214-0.714-1.286-2-3.071-2-4.5 0-2.786 9.357-7.429 9.357-10.571 0-1.643-1.571-3.286-2.357-4.643-1.143-2-6.429-12.429-7.714-12.857-0.357-0.143-0.786-0.143-1.143-0.143-1.857 0-5.5 0.857-7.214 1.571-4.714 2.143-8.143 11.143-8.143 16.071 0 4.786 1.929 9.143 3.571 13.571 5.714 15.643 22.714 32.643 38.357 38.357 4.429 1.643 8.786 3.571 13.571 3.571 4.929 0 13.929-3.429 16.071-8.143 0.714-1.714 1.571-5.357 1.571-7.214zM109.714 29.714v68.571c0 11.357-9.214 20.571-20.571 20.571h-68.571c-11.357 0-20.571-9.214-20.571-20.571v-68.571c0-11.357 9.214-20.571 20.571-20.571h68.571c11.357 0 20.571 9.214 20.571 20.571z"></path>
</svg>
