<?xml version="1.0" encoding="utf-8"?>
<!-- Generated by IcoMoon.io -->
<!DOCTYPE svg PUBLIC "-//W3C//DTD SVG 1.1//EN" "http://www.w3.org/Graphics/SVG/1.1/DTD/svg11.dtd">
<svg version="1.1" xmlns="http://www.w3.org/2000/svg" xmlns:xlink="http://www.w3.org/1999/xlink" width="128" height="128" viewBox="0 0 128 128">
<path fill="#55781e" d="M16 82.667c0 25.040 20.293 45.333 45.333 45.333h2.667c25.043 0 45.333-20.293 45.333-45.333 0-5.627-0.8-11.013-2.667-16-15.496 0-29.147 7.76-37.333 19.6v-20.267c15.227-3.093 26.667-16.533 26.667-32.667v-28.053c0-2.907-2.4-5.28-5.333-5.28-1.496 0-2.853 0.613-3.813 1.6l-10.133 10.027-10.053-10.027c-2.133-2.133-5.573-2.133-7.68 0l-10.213 10.187-10.294-10.187c-0.96-0.987-2.32-1.6-3.813-1.6-2.933 0-5.333 2.373-5.333 5.28l-0 28.053c0 16.133 11.44 29.573 26.667 32.667v20.267c-8.187-11.84-21.84-19.6-37.333-19.6-1.867 4.987-2.667 10.373-2.667 16z"></path>
</svg>
